# xmcd CD database file
#
# Track frame offsets:
#	150
#	13877
#	26901
#	40792
#	53782
#	68506
#	83098
#	96734
#	101098
#	112557
#	139128
#	144132
#	152148
#	164210
#	167991
#	182628
#	195795
#	200980
#	218336
#	231388
#	243622
#	257504
#	270742
#	283499
#	297010
#	310571
#
# Disc length: 4325 seconds
#
# Revision: 0
# Processed by: cddbd v1.5PL3 Copyright (c) Steve Scherf et al.
# Submitted via: CDex 1.51
#
DISCID=7c10e31a
DTITLE=David "Honeyboy" Edwards - Big Joe Williams and the Stars of Mississippi Blues,
DYEAR=2004
DGENRE=Blues
TTITLE0=Robert Petway - Don't Go Down Baby
TTITLE1=Robert Petway - Bertha Lee Blues
TTITLE2=Robert Petway - Hollow Log Blues
TTITLE3=Robert Petway - In The Evening
TTITLE4=Robert Petway - My Baby Left Me
TTITLE5=Robert Petway - Cotton Pickin' Blues
TTITLE6=Roamin' And Ramblin' Blues
TTITLE7=You Got To Roll (Levee Camp Song)
TTITLE8=You Got To Roll
TTITLE9=Water Coast Blues
TTITLE10=Stagolee
TTITLE11=Just A Spoonful
TTITLE12=Spread My Raincoat Down
TTITLE13=Hellatakin' Blues
TTITLE14=Wind Howlin' Blues
TTITLE15=Worried Life Blues
TTITLE16=Tear It Down Rag
TTITLE17=Army Blues, The
TTITLE18=Willie "Poor Boy" Lofton - It's Killing Me
TTITLE19=Willie "Poor Boy" Lofton - Poor Boy Blues
TTITLE20=Willie "Poor Boy" Lofton - Jake Leg Blues
TTITLE21=Willie "Poor Boy" Lofton - My Mean Baby Blues
TTITLE22=Willie "Poor Boy" Lofton - Dirty Mistreater
TTITLE23=Willie "Poor Boy" Lofton - Rainy Day Blues
TTITLE24=Willie "Poor Boy" Lofton - Beer Garden Blues
TTITLE25=Willie "Poor Boy" Lofton - Dark Road Blues 
EXTD=YEAR: 2004
EXTT0=
EXTT1=
EXTT2=
EXTT3=
EXTT4=
EXTT5=
EXTT6=
EXTT7=
EXTT8=
EXTT9=
EXTT10=
EXTT11=
EXTT12=
EXTT13=
EXTT14=
EXTT15=
EXTT16=
EXTT17=
EXTT18=
EXTT19=
EXTT20=
EXTT21=
EXTT22=
EXTT23=
EXTT24=
EXTT25=
PLAYORDER=
